<mxfile host="app.diagrams.net" modified="2022-02-14T05:49:00.622Z" agent="5.0 (Windows NT 10.0; Win64; x64) AppleWebKit/537.36 (KHTML, like Gecko) Chrome/96.0.4664.110 Safari/537.36" etag="5FsUddKVfjktCC3zQly1" version="16.5.6" type="github">
  <diagram id="yPxyJZ8AM_hMuL3Unpa9" name="complex gitflow">
    <mxGraphModel dx="1550" dy="835" grid="1" gridSize="10" guides="1" tooltips="1" connect="1" arrows="1" fold="1" page="1" pageScale="1" pageWidth="1100" pageHeight="850" math="0" shadow="0">
      <root>
        <mxCell id="0" />
        <mxCell id="1" parent="0" />
        <mxCell id="uWUnNED6HEl2aK5fdaIb-10" value="" style="verticalLabelPosition=bottom;verticalAlign=top;html=1;strokeWidth=4;shape=mxgraph.flowchart.on-page_reference;plain-blue;gradientColor=none;fillColor=#B5E3Fe;strokeColor=#000000;" parent="1" vertex="1">
          <mxGeometry x="298.75" y="196" width="30" height="30" as="geometry" />
        </mxCell>
        <mxCell id="uWUnNED6HEl2aK5fdaIb-109" value="" style="verticalLabelPosition=bottom;verticalAlign=top;html=1;strokeWidth=4;shape=mxgraph.flowchart.on-page_reference;plain-blue;gradientColor=none;strokeColor=#33001A;fillColor=#B5E3FE;" parent="1" vertex="1">
          <mxGeometry x="1100" y="196" width="30" height="30" as="geometry" />
        </mxCell>
        <mxCell id="uWUnNED6HEl2aK5fdaIb-12" value="" style="edgeStyle=orthogonalEdgeStyle;rounded=0;html=1;jettySize=auto;orthogonalLoop=1;strokeWidth=4;endArrow=none;endFill=0;" parent="1" target="uWUnNED6HEl2aK5fdaIb-10" edge="1">
          <mxGeometry x="192.25" y="211" as="geometry">
            <mxPoint x="150" y="211" as="sourcePoint" />
          </mxGeometry>
        </mxCell>
        <mxCell id="uWUnNED6HEl2aK5fdaIb-13" value="Master" style="text;html=1;strokeColor=none;fillColor=none;align=center;verticalAlign=middle;whiteSpace=wrap;overflow=hidden;fontSize=14;fontStyle=1;fontFamily=Courier New;" parent="1" vertex="1">
          <mxGeometry x="83" y="190" width="50" height="42" as="geometry" />
        </mxCell>
        <mxCell id="uWUnNED6HEl2aK5fdaIb-14" style="edgeStyle=orthogonalEdgeStyle;curved=1;rounded=0;html=1;exitX=1;exitY=0.5;exitPerimeter=0;endArrow=none;endFill=0;jettySize=auto;orthogonalLoop=1;strokeWidth=4;fontSize=15;entryX=0;entryY=0.5;entryDx=0;entryDy=0;entryPerimeter=0;startArrow=none;" parent="1" source="Vz9PpJUxYuVP-sBHaJVy-69" target="Vz9PpJUxYuVP-sBHaJVy-25" edge="1">
          <mxGeometry relative="1" as="geometry">
            <mxPoint x="630" y="296" as="targetPoint" />
          </mxGeometry>
        </mxCell>
        <mxCell id="uWUnNED6HEl2aK5fdaIb-15" value="" style="verticalLabelPosition=bottom;verticalAlign=top;html=1;strokeWidth=4;shape=mxgraph.flowchart.on-page_reference;plain-purple;gradientColor=none;strokeColor=#000000;fillColor=#D5E8D4;" parent="1" vertex="1">
          <mxGeometry x="339.75" y="281" width="30" height="30" as="geometry" />
        </mxCell>
        <mxCell id="uWUnNED6HEl2aK5fdaIb-20" value="Dev" style="text;html=1;strokeColor=none;fillColor=none;align=left;verticalAlign=middle;whiteSpace=wrap;overflow=hidden;fontSize=14;fontStyle=1;fontFamily=Courier New;" parent="1" vertex="1">
          <mxGeometry x="88.75" y="286" width="240" height="20" as="geometry" />
        </mxCell>
        <mxCell id="uWUnNED6HEl2aK5fdaIb-71" value="" style="edgeStyle=orthogonalEdgeStyle;rounded=0;orthogonalLoop=1;jettySize=auto;html=1;endArrow=none;endFill=0;strokeWidth=4;" parent="1" source="uWUnNED6HEl2aK5fdaIb-69" target="uWUnNED6HEl2aK5fdaIb-70" edge="1">
          <mxGeometry relative="1" as="geometry" />
        </mxCell>
        <mxCell id="uWUnNED6HEl2aK5fdaIb-75" style="edgeStyle=orthogonalEdgeStyle;rounded=0;orthogonalLoop=1;jettySize=auto;html=1;entryX=1;entryY=0.5;entryDx=0;entryDy=0;entryPerimeter=0;endArrow=none;endFill=0;strokeWidth=4;curved=1;" parent="1" source="uWUnNED6HEl2aK5fdaIb-69" target="uWUnNED6HEl2aK5fdaIb-15" edge="1">
          <mxGeometry relative="1" as="geometry" />
        </mxCell>
        <mxCell id="uWUnNED6HEl2aK5fdaIb-69" value="" style="verticalLabelPosition=bottom;verticalAlign=top;html=1;strokeWidth=4;shape=mxgraph.flowchart.on-page_reference;plain-purple;gradientColor=none;strokeColor=#000000;fillColor=#FF66FF;" parent="1" vertex="1">
          <mxGeometry x="416.75" y="361" width="30" height="30" as="geometry" />
        </mxCell>
        <mxCell id="uWUnNED6HEl2aK5fdaIb-78" value="" style="edgeStyle=orthogonalEdgeStyle;curved=1;rounded=0;orthogonalLoop=1;jettySize=auto;html=1;endArrow=none;endFill=0;strokeWidth=4;" parent="1" source="uWUnNED6HEl2aK5fdaIb-70" target="uWUnNED6HEl2aK5fdaIb-77" edge="1">
          <mxGeometry relative="1" as="geometry" />
        </mxCell>
        <mxCell id="uWUnNED6HEl2aK5fdaIb-70" value="" style="verticalLabelPosition=bottom;verticalAlign=top;html=1;strokeWidth=4;shape=mxgraph.flowchart.on-page_reference;plain-purple;gradientColor=none;strokeColor=#000000;fillColor=#FF66FF;" parent="1" vertex="1">
          <mxGeometry x="514.75" y="361" width="30" height="30" as="geometry" />
        </mxCell>
        <mxCell id="uWUnNED6HEl2aK5fdaIb-96" value="" style="edgeStyle=orthogonalEdgeStyle;curved=1;rounded=0;orthogonalLoop=1;jettySize=auto;html=1;endArrow=none;endFill=0;strokeWidth=4;fontFamily=Courier New;fontColor=#009900;startArrow=none;" parent="1" source="Vz9PpJUxYuVP-sBHaJVy-75" target="uWUnNED6HEl2aK5fdaIb-95" edge="1">
          <mxGeometry relative="1" as="geometry" />
        </mxCell>
        <mxCell id="uWUnNED6HEl2aK5fdaIb-77" value="" style="verticalLabelPosition=bottom;verticalAlign=top;html=1;strokeWidth=4;shape=mxgraph.flowchart.on-page_reference;plain-purple;gradientColor=none;strokeColor=#000000;fillColor=#FF66FF;" parent="1" vertex="1">
          <mxGeometry x="690" y="361" width="30" height="30" as="geometry" />
        </mxCell>
        <mxCell id="uWUnNED6HEl2aK5fdaIb-108" style="edgeStyle=orthogonalEdgeStyle;curved=1;rounded=0;orthogonalLoop=1;jettySize=auto;html=1;entryX=0;entryY=0.5;entryDx=0;entryDy=0;entryPerimeter=0;endArrow=none;endFill=0;strokeWidth=4;fontFamily=Courier New;fontColor=#009900;" parent="1" source="uWUnNED6HEl2aK5fdaIb-95" target="uWUnNED6HEl2aK5fdaIb-106" edge="1">
          <mxGeometry relative="1" as="geometry" />
        </mxCell>
        <mxCell id="uWUnNED6HEl2aK5fdaIb-95" value="" style="verticalLabelPosition=bottom;verticalAlign=top;html=1;strokeWidth=4;shape=mxgraph.flowchart.on-page_reference;plain-purple;gradientColor=none;strokeColor=#000000;fillColor=#FF66FF;" parent="1" vertex="1">
          <mxGeometry x="990" y="361" width="30" height="30" as="geometry" />
        </mxCell>
        <mxCell id="uWUnNED6HEl2aK5fdaIb-76" value="Dev:Ctms" style="text;html=1;strokeColor=none;fillColor=none;align=left;verticalAlign=middle;whiteSpace=wrap;overflow=hidden;fontSize=14;fontStyle=1;fontFamily=Courier New;" parent="1" vertex="1">
          <mxGeometry x="87.75" y="364" width="91" height="20" as="geometry" />
        </mxCell>
        <mxCell id="uWUnNED6HEl2aK5fdaIb-87" value="Ctms 子开发分支" style="text;html=1;strokeColor=none;fillColor=none;align=left;verticalAlign=middle;whiteSpace=wrap;overflow=hidden;fontSize=14;fontStyle=0;fontColor=#009900;" parent="1" vertex="1">
          <mxGeometry x="85.75" y="384" width="240" height="20" as="geometry" />
        </mxCell>
        <mxCell id="uWUnNED6HEl2aK5fdaIb-89" value="开发分支（测试环境）" style="text;html=1;strokeColor=none;fillColor=none;align=left;verticalAlign=middle;whiteSpace=wrap;overflow=hidden;fontSize=14;fontStyle=0;fontColor=#009900;" parent="1" vertex="1">
          <mxGeometry x="86.75" y="306" width="240" height="20" as="geometry" />
        </mxCell>
        <mxCell id="uWUnNED6HEl2aK5fdaIb-90" value="The main branch&lt;br&gt;" style="text;html=1;strokeColor=none;fillColor=none;align=left;verticalAlign=middle;whiteSpace=wrap;overflow=hidden;fontSize=14;fontStyle=0;fontColor=#009900;" parent="1" vertex="1">
          <mxGeometry x="88.25" y="220" width="146.75" height="20" as="geometry" />
        </mxCell>
        <mxCell id="uWUnNED6HEl2aK5fdaIb-92" value="" style="endArrow=classic;html=1;strokeWidth=1;fontFamily=Courier New;fontColor=#009900;" parent="1" edge="1">
          <mxGeometry width="50" height="50" relative="1" as="geometry">
            <mxPoint x="186.75" y="374" as="sourcePoint" />
            <mxPoint x="376.75" y="374" as="targetPoint" />
          </mxGeometry>
        </mxCell>
        <mxCell id="uWUnNED6HEl2aK5fdaIb-93" value="" style="endArrow=classic;html=1;strokeWidth=1;fontFamily=Courier New;fontColor=#009900;" parent="1" edge="1">
          <mxGeometry width="50" height="50" relative="1" as="geometry">
            <mxPoint x="230" y="280" as="sourcePoint" />
            <mxPoint x="310" y="280" as="targetPoint" />
          </mxGeometry>
        </mxCell>
        <mxCell id="uWUnNED6HEl2aK5fdaIb-103" value="Release: 3.0.0" style="text;html=1;strokeColor=none;fillColor=none;align=center;verticalAlign=middle;whiteSpace=wrap;overflow=hidden;fontSize=14;" parent="1" vertex="1">
          <mxGeometry x="377.88" y="168" width="107.75" height="20" as="geometry" />
        </mxCell>
        <mxCell id="uWUnNED6HEl2aK5fdaIb-115" style="edgeStyle=orthogonalEdgeStyle;curved=1;rounded=0;orthogonalLoop=1;jettySize=auto;html=1;entryX=0;entryY=0.5;entryDx=0;entryDy=0;entryPerimeter=0;endArrow=none;endFill=0;strokeWidth=4;fontFamily=Courier New;fontColor=#009900;" parent="1" source="uWUnNED6HEl2aK5fdaIb-106" target="uWUnNED6HEl2aK5fdaIb-109" edge="1">
          <mxGeometry relative="1" as="geometry">
            <Array as="points">
              <mxPoint x="1100" y="296" />
            </Array>
          </mxGeometry>
        </mxCell>
        <mxCell id="uWUnNED6HEl2aK5fdaIb-106" value="" style="verticalLabelPosition=bottom;verticalAlign=top;html=1;strokeWidth=4;shape=mxgraph.flowchart.on-page_reference;plain-purple;gradientColor=none;strokeColor=#000000;fillColor=#D5E8D4;" parent="1" vertex="1">
          <mxGeometry x="1060" y="281" width="30" height="30" as="geometry" />
        </mxCell>
        <mxCell id="uWUnNED6HEl2aK5fdaIb-116" value="Release: 3.1.0" style="text;html=1;strokeColor=none;fillColor=none;align=center;verticalAlign=middle;whiteSpace=wrap;overflow=hidden;fontSize=14;" parent="1" vertex="1">
          <mxGeometry x="782.25" y="168" width="110" height="20" as="geometry" />
        </mxCell>
        <mxCell id="uWUnNED6HEl2aK5fdaIb-117" value="" style="endArrow=classic;html=1;strokeWidth=1;fontFamily=Courier New;fontColor=#009900;exitX=0.5;exitY=1;exitDx=0;exitDy=0;" parent="1" source="Vz9PpJUxYuVP-sBHaJVy-38" edge="1">
          <mxGeometry width="50" height="50" relative="1" as="geometry">
            <mxPoint x="729.875" y="121" as="sourcePoint" />
            <mxPoint x="720" y="270" as="targetPoint" />
          </mxGeometry>
        </mxCell>
        <mxCell id="fSnZ5vnYTslC5NarKmr_-9" value="" style="edgeStyle=orthogonalEdgeStyle;rounded=0;orthogonalLoop=1;jettySize=auto;html=1;fontSize=12;fontColor=#000000;entryX=0;entryY=0.5;entryDx=0;entryDy=0;" parent="1" edge="1">
          <mxGeometry relative="1" as="geometry">
            <mxPoint x="369.25" y="180" as="targetPoint" />
            <Array as="points">
              <mxPoint x="349.25" y="180" />
              <mxPoint x="349.25" y="180" />
            </Array>
            <mxPoint x="341.5" y="180" as="sourcePoint" />
          </mxGeometry>
        </mxCell>
        <mxCell id="9hBKPDzoitwpIBdzFDQ7-15" value="&lt;span style=&quot;text-align: center&quot;&gt;由Dev分支合并至Master&lt;br&gt;&lt;/span&gt;" style="text;html=1;strokeColor=none;fillColor=none;align=left;verticalAlign=middle;whiteSpace=wrap;overflow=hidden;fontSize=12;fontStyle=0;fontColor=#000000;" parent="1" vertex="1">
          <mxGeometry x="1130" y="220" width="167.75" height="40" as="geometry" />
        </mxCell>
        <mxCell id="9hBKPDzoitwpIBdzFDQ7-21" value="" style="edgeStyle=orthogonalEdgeStyle;rounded=0;orthogonalLoop=1;jettySize=auto;html=1;fontSize=15;endArrow=none;endFill=0;strokeWidth=4;entryX=0;entryY=0.5;entryDx=0;entryDy=0;entryPerimeter=0;exitX=1;exitY=0.5;exitDx=0;exitDy=0;exitPerimeter=0;" parent="1" source="uWUnNED6HEl2aK5fdaIb-10" target="Vz9PpJUxYuVP-sBHaJVy-47" edge="1">
          <mxGeometry relative="1" as="geometry">
            <mxPoint x="622.25" y="211" as="targetPoint" />
            <mxPoint x="482.25" y="211" as="sourcePoint" />
          </mxGeometry>
        </mxCell>
        <mxCell id="Vz9PpJUxYuVP-sBHaJVy-1" value="" style="verticalLabelPosition=bottom;verticalAlign=top;html=1;strokeWidth=4;shape=mxgraph.flowchart.on-page_reference;plain-purple;gradientColor=none;strokeColor=#000000;fillColor=#FF8000;" vertex="1" parent="1">
          <mxGeometry x="416.75" y="440" width="30" height="30" as="geometry" />
        </mxCell>
        <mxCell id="Vz9PpJUxYuVP-sBHaJVy-32" value="" style="edgeStyle=orthogonalEdgeStyle;rounded=0;orthogonalLoop=1;jettySize=auto;html=1;" edge="1" parent="1" source="Vz9PpJUxYuVP-sBHaJVy-2" target="Vz9PpJUxYuVP-sBHaJVy-1">
          <mxGeometry relative="1" as="geometry" />
        </mxCell>
        <mxCell id="Vz9PpJUxYuVP-sBHaJVy-2" value="" style="verticalLabelPosition=bottom;verticalAlign=top;html=1;strokeWidth=4;shape=mxgraph.flowchart.on-page_reference;plain-purple;gradientColor=none;strokeColor=#000000;fillColor=#FF8000;" vertex="1" parent="1">
          <mxGeometry x="520" y="440" width="30" height="30" as="geometry" />
        </mxCell>
        <mxCell id="Vz9PpJUxYuVP-sBHaJVy-3" value="" style="verticalLabelPosition=bottom;verticalAlign=top;html=1;strokeWidth=4;shape=mxgraph.flowchart.on-page_reference;plain-purple;gradientColor=none;strokeColor=#000000;fillColor=#FF8000;" vertex="1" parent="1">
          <mxGeometry x="592.25" y="440" width="30" height="30" as="geometry" />
        </mxCell>
        <mxCell id="Vz9PpJUxYuVP-sBHaJVy-4" value="Dev:EDC/SDC" style="text;html=1;strokeColor=none;fillColor=none;align=left;verticalAlign=middle;whiteSpace=wrap;overflow=hidden;fontSize=14;fontStyle=1;fontFamily=Courier New;" vertex="1" parent="1">
          <mxGeometry x="85" y="430" width="105" height="20" as="geometry" />
        </mxCell>
        <mxCell id="Vz9PpJUxYuVP-sBHaJVy-5" value="EDC/SDC 子开发分支" style="text;html=1;strokeColor=none;fillColor=none;align=left;verticalAlign=middle;whiteSpace=wrap;overflow=hidden;fontSize=14;fontStyle=0;fontColor=#009900;" vertex="1" parent="1">
          <mxGeometry x="83" y="450" width="240" height="20" as="geometry" />
        </mxCell>
        <mxCell id="Vz9PpJUxYuVP-sBHaJVy-6" value="" style="endArrow=classic;html=1;strokeWidth=1;fontFamily=Courier New;fontColor=#009900;" edge="1" parent="1">
          <mxGeometry width="50" height="50" relative="1" as="geometry">
            <mxPoint x="185" y="440" as="sourcePoint" />
            <mxPoint x="375" y="440" as="targetPoint" />
          </mxGeometry>
        </mxCell>
        <mxCell id="Vz9PpJUxYuVP-sBHaJVy-7" style="edgeStyle=orthogonalEdgeStyle;rounded=0;orthogonalLoop=1;jettySize=auto;html=1;endArrow=none;endFill=0;strokeWidth=4;curved=1;exitX=0;exitY=0.5;exitDx=0;exitDy=0;exitPerimeter=0;" edge="1" parent="1" source="Vz9PpJUxYuVP-sBHaJVy-1">
          <mxGeometry relative="1" as="geometry">
            <mxPoint x="426.75" y="386" as="sourcePoint" />
            <mxPoint x="370" y="300" as="targetPoint" />
            <Array as="points">
              <mxPoint x="390" y="455" />
              <mxPoint x="390" y="300" />
            </Array>
          </mxGeometry>
        </mxCell>
        <mxCell id="Vz9PpJUxYuVP-sBHaJVy-12" value="" style="edgeStyle=orthogonalEdgeStyle;curved=1;rounded=0;orthogonalLoop=1;jettySize=auto;html=1;endArrow=none;endFill=0;strokeWidth=4;exitX=1;exitY=0.5;exitDx=0;exitDy=0;exitPerimeter=0;entryX=0;entryY=0.5;entryDx=0;entryDy=0;entryPerimeter=0;" edge="1" parent="1" source="Vz9PpJUxYuVP-sBHaJVy-2" target="Vz9PpJUxYuVP-sBHaJVy-3">
          <mxGeometry relative="1" as="geometry">
            <mxPoint x="554.75" y="437" as="sourcePoint" />
            <mxPoint x="580" y="455" as="targetPoint" />
          </mxGeometry>
        </mxCell>
        <mxCell id="Vz9PpJUxYuVP-sBHaJVy-18" style="edgeStyle=orthogonalEdgeStyle;curved=1;rounded=0;html=1;endArrow=none;endFill=0;jettySize=auto;orthogonalLoop=1;strokeWidth=4;fontSize=15;entryX=0.5;entryY=1;entryDx=0;entryDy=0;entryPerimeter=0;" edge="1" parent="1" target="uWUnNED6HEl2aK5fdaIb-10">
          <mxGeometry relative="1" as="geometry">
            <mxPoint x="340" y="296" as="sourcePoint" />
            <mxPoint x="600.25" y="306" as="targetPoint" />
          </mxGeometry>
        </mxCell>
        <mxCell id="Vz9PpJUxYuVP-sBHaJVy-22" value="" style="edgeStyle=orthogonalEdgeStyle;rounded=0;orthogonalLoop=1;jettySize=auto;html=1;fontSize=12;fontColor=#000000;entryX=0;entryY=0.5;entryDx=0;entryDy=0;" edge="1" parent="1">
          <mxGeometry relative="1" as="geometry">
            <mxPoint x="370.25" y="179.5" as="targetPoint" />
            <Array as="points">
              <mxPoint x="350.25" y="179.5" />
              <mxPoint x="350.25" y="179.5" />
            </Array>
            <mxPoint x="170" y="180" as="sourcePoint" />
          </mxGeometry>
        </mxCell>
        <mxCell id="Vz9PpJUxYuVP-sBHaJVy-23" style="edgeStyle=orthogonalEdgeStyle;curved=1;rounded=0;html=1;endArrow=none;endFill=0;jettySize=auto;orthogonalLoop=1;strokeWidth=4;fontSize=15;entryX=0;entryY=0.5;entryDx=0;entryDy=0;entryPerimeter=0;" edge="1" parent="1">
          <mxGeometry relative="1" as="geometry">
            <mxPoint x="150" y="296" as="sourcePoint" />
            <mxPoint x="339.75" y="295.5" as="targetPoint" />
            <Array as="points">
              <mxPoint x="245" y="296" />
            </Array>
          </mxGeometry>
        </mxCell>
        <mxCell id="Vz9PpJUxYuVP-sBHaJVy-24" value="" style="edgeStyle=orthogonalEdgeStyle;rounded=0;orthogonalLoop=1;jettySize=auto;html=1;endArrow=none;endFill=0;strokeWidth=4;entryX=0;entryY=0.5;entryDx=0;entryDy=0;entryPerimeter=0;" edge="1" parent="1" source="Vz9PpJUxYuVP-sBHaJVy-1" target="Vz9PpJUxYuVP-sBHaJVy-2">
          <mxGeometry relative="1" as="geometry">
            <mxPoint x="450" y="454" as="sourcePoint" />
            <mxPoint x="524.75" y="454" as="targetPoint" />
          </mxGeometry>
        </mxCell>
        <mxCell id="Vz9PpJUxYuVP-sBHaJVy-25" value="" style="verticalLabelPosition=bottom;verticalAlign=top;html=1;strokeWidth=4;shape=mxgraph.flowchart.on-page_reference;plain-purple;gradientColor=none;strokeColor=#000000;fillColor=#D5E8D4;" vertex="1" parent="1">
          <mxGeometry x="600" y="281" width="30" height="30" as="geometry" />
        </mxCell>
        <mxCell id="Vz9PpJUxYuVP-sBHaJVy-27" style="edgeStyle=orthogonalEdgeStyle;curved=1;rounded=0;html=1;endArrow=none;endFill=0;jettySize=auto;orthogonalLoop=1;strokeWidth=4;fontSize=15;exitX=1;exitY=0.5;exitDx=0;exitDy=0;exitPerimeter=0;startArrow=none;" edge="1" parent="1" source="Vz9PpJUxYuVP-sBHaJVy-56" target="uWUnNED6HEl2aK5fdaIb-106">
          <mxGeometry relative="1" as="geometry">
            <mxPoint x="750" y="280.5" as="sourcePoint" />
            <mxPoint x="1060" y="280" as="targetPoint" />
          </mxGeometry>
        </mxCell>
        <mxCell id="Vz9PpJUxYuVP-sBHaJVy-28" value="" style="edgeStyle=orthogonalEdgeStyle;curved=1;rounded=0;orthogonalLoop=1;jettySize=auto;html=1;endArrow=none;endFill=0;strokeWidth=4;entryX=0;entryY=0.5;entryDx=0;entryDy=0;entryPerimeter=0;exitX=1;exitY=0.5;exitDx=0;exitDy=0;exitPerimeter=0;" edge="1" parent="1" source="uWUnNED6HEl2aK5fdaIb-70" target="Vz9PpJUxYuVP-sBHaJVy-25">
          <mxGeometry relative="1" as="geometry">
            <mxPoint x="550" y="370" as="sourcePoint" />
            <mxPoint x="604.75" y="386" as="targetPoint" />
          </mxGeometry>
        </mxCell>
        <mxCell id="Vz9PpJUxYuVP-sBHaJVy-29" value="" style="edgeStyle=orthogonalEdgeStyle;curved=1;rounded=0;orthogonalLoop=1;jettySize=auto;html=1;endArrow=none;endFill=0;strokeWidth=4;exitX=1;exitY=0.5;exitDx=0;exitDy=0;exitPerimeter=0;entryX=0;entryY=0.5;entryDx=0;entryDy=0;entryPerimeter=0;" edge="1" parent="1" source="Vz9PpJUxYuVP-sBHaJVy-3" target="Vz9PpJUxYuVP-sBHaJVy-30">
          <mxGeometry relative="1" as="geometry">
            <mxPoint x="554.75" y="386" as="sourcePoint" />
            <mxPoint x="750" y="300" as="targetPoint" />
          </mxGeometry>
        </mxCell>
        <mxCell id="Vz9PpJUxYuVP-sBHaJVy-30" value="" style="verticalLabelPosition=bottom;verticalAlign=top;html=1;strokeWidth=4;shape=mxgraph.flowchart.on-page_reference;plain-purple;gradientColor=none;strokeColor=#000000;fillColor=#D5E8D4;" vertex="1" parent="1">
          <mxGeometry x="710" y="281" width="30" height="30" as="geometry" />
        </mxCell>
        <mxCell id="Vz9PpJUxYuVP-sBHaJVy-31" value="" style="edgeStyle=orthogonalEdgeStyle;curved=1;rounded=0;html=1;endArrow=none;endFill=0;jettySize=auto;orthogonalLoop=1;strokeWidth=4;fontSize=15;exitX=1;exitY=0.5;exitDx=0;exitDy=0;exitPerimeter=0;" edge="1" parent="1" source="Vz9PpJUxYuVP-sBHaJVy-25">
          <mxGeometry relative="1" as="geometry">
            <mxPoint x="649" y="296" as="sourcePoint" />
            <mxPoint x="710" y="296" as="targetPoint" />
          </mxGeometry>
        </mxCell>
        <mxCell id="Vz9PpJUxYuVP-sBHaJVy-33" value="" style="verticalLabelPosition=bottom;verticalAlign=top;html=1;strokeWidth=4;shape=mxgraph.flowchart.on-page_reference;plain-purple;gradientColor=none;strokeColor=#000000;fillColor=#FF8000;" vertex="1" parent="1">
          <mxGeometry x="838.75" y="440" width="30" height="30" as="geometry" />
        </mxCell>
        <mxCell id="Vz9PpJUxYuVP-sBHaJVy-34" value="" style="edgeStyle=orthogonalEdgeStyle;curved=1;rounded=0;orthogonalLoop=1;jettySize=auto;html=1;endArrow=none;endFill=0;strokeWidth=4;exitX=1;exitY=0.5;exitDx=0;exitDy=0;exitPerimeter=0;entryX=0;entryY=0.5;entryDx=0;entryDy=0;entryPerimeter=0;" edge="1" parent="1" source="Vz9PpJUxYuVP-sBHaJVy-3" target="Vz9PpJUxYuVP-sBHaJVy-33">
          <mxGeometry relative="1" as="geometry">
            <mxPoint x="560" y="465" as="sourcePoint" />
            <mxPoint x="602.25" y="465" as="targetPoint" />
          </mxGeometry>
        </mxCell>
        <mxCell id="Vz9PpJUxYuVP-sBHaJVy-35" value="" style="edgeStyle=orthogonalEdgeStyle;curved=1;rounded=0;orthogonalLoop=1;jettySize=auto;html=1;endArrow=none;endFill=0;strokeWidth=4;exitX=1;exitY=0.5;exitDx=0;exitDy=0;exitPerimeter=0;" edge="1" parent="1" source="Vz9PpJUxYuVP-sBHaJVy-33">
          <mxGeometry relative="1" as="geometry">
            <mxPoint x="632.25" y="465" as="sourcePoint" />
            <mxPoint x="1210" y="455" as="targetPoint" />
          </mxGeometry>
        </mxCell>
        <mxCell id="Vz9PpJUxYuVP-sBHaJVy-36" value="" style="edgeStyle=orthogonalEdgeStyle;curved=1;rounded=0;orthogonalLoop=1;jettySize=auto;html=1;endArrow=none;endFill=0;strokeWidth=4;exitX=1;exitY=0.5;exitDx=0;exitDy=0;exitPerimeter=0;" edge="1" parent="1" source="uWUnNED6HEl2aK5fdaIb-95">
          <mxGeometry relative="1" as="geometry">
            <mxPoint x="822.25" y="465" as="sourcePoint" />
            <mxPoint x="1210" y="376" as="targetPoint" />
          </mxGeometry>
        </mxCell>
        <mxCell id="Vz9PpJUxYuVP-sBHaJVy-38" value="&lt;span style=&quot;text-align: center&quot;&gt;SDC/EDC 开发分支合并至Dev&lt;br&gt;&lt;/span&gt;" style="text;html=1;strokeColor=none;fillColor=none;align=left;verticalAlign=middle;whiteSpace=wrap;overflow=hidden;fontSize=12;fontStyle=0;fontColor=#000000;" vertex="1" parent="1">
          <mxGeometry x="670.63" y="94" width="108.75" height="41" as="geometry" />
        </mxCell>
        <mxCell id="Vz9PpJUxYuVP-sBHaJVy-40" value="" style="endArrow=classic;html=1;strokeWidth=1;fontFamily=Courier New;fontColor=#009900;" edge="1" parent="1">
          <mxGeometry width="50" height="50" relative="1" as="geometry">
            <mxPoint x="1120" y="270" as="sourcePoint" />
            <mxPoint x="1120" y="240" as="targetPoint" />
          </mxGeometry>
        </mxCell>
        <mxCell id="Vz9PpJUxYuVP-sBHaJVy-41" value="" style="edgeStyle=orthogonalEdgeStyle;curved=1;rounded=0;orthogonalLoop=1;jettySize=auto;html=1;endArrow=none;endFill=0;strokeWidth=4;" edge="1" parent="1" source="uWUnNED6HEl2aK5fdaIb-106">
          <mxGeometry relative="1" as="geometry">
            <mxPoint x="1080" y="296" as="sourcePoint" />
            <mxPoint x="1210" y="296" as="targetPoint" />
            <Array as="points" />
          </mxGeometry>
        </mxCell>
        <mxCell id="Vz9PpJUxYuVP-sBHaJVy-42" value="" style="endArrow=classic;html=1;strokeWidth=1;fontFamily=Courier New;fontColor=#009900;exitX=0.5;exitY=1;exitDx=0;exitDy=0;" edge="1" parent="1" source="Vz9PpJUxYuVP-sBHaJVy-43">
          <mxGeometry width="50" height="50" relative="1" as="geometry">
            <mxPoint x="613.25" y="239" as="sourcePoint" />
            <mxPoint x="613.25" y="269" as="targetPoint" />
          </mxGeometry>
        </mxCell>
        <mxCell id="Vz9PpJUxYuVP-sBHaJVy-43" value="&lt;span style=&quot;text-align: center&quot;&gt;Ctms 开发分支合并至Dev&lt;br&gt;&lt;/span&gt;" style="text;html=1;strokeColor=none;fillColor=none;align=left;verticalAlign=middle;whiteSpace=wrap;overflow=hidden;fontSize=12;fontStyle=0;fontColor=#000000;" vertex="1" parent="1">
          <mxGeometry x="571" y="117" width="86.5" height="41" as="geometry" />
        </mxCell>
        <mxCell id="Vz9PpJUxYuVP-sBHaJVy-47" value="" style="verticalLabelPosition=bottom;verticalAlign=top;html=1;strokeWidth=4;shape=mxgraph.flowchart.on-page_reference;plain-blue;gradientColor=none;strokeColor=#33001A;fillColor=#B5E3FE;" vertex="1" parent="1">
          <mxGeometry x="782.25" y="196" width="30" height="30" as="geometry" />
        </mxCell>
        <mxCell id="Vz9PpJUxYuVP-sBHaJVy-48" value="" style="edgeStyle=orthogonalEdgeStyle;rounded=0;orthogonalLoop=1;jettySize=auto;html=1;fontSize=15;endArrow=none;endFill=0;strokeWidth=4;entryX=0;entryY=0.5;entryDx=0;entryDy=0;entryPerimeter=0;exitX=1;exitY=0.5;exitDx=0;exitDy=0;exitPerimeter=0;" edge="1" parent="1" source="Vz9PpJUxYuVP-sBHaJVy-47" target="uWUnNED6HEl2aK5fdaIb-109">
          <mxGeometry relative="1" as="geometry">
            <mxPoint x="750" y="221" as="targetPoint" />
            <mxPoint x="456.75" y="221" as="sourcePoint" />
          </mxGeometry>
        </mxCell>
        <mxCell id="Vz9PpJUxYuVP-sBHaJVy-49" value="Release: 3.2.0" style="text;html=1;strokeColor=none;fillColor=none;align=center;verticalAlign=middle;whiteSpace=wrap;overflow=hidden;fontSize=14;" vertex="1" parent="1">
          <mxGeometry x="1070" y="170" width="110" height="20" as="geometry" />
        </mxCell>
        <mxCell id="Vz9PpJUxYuVP-sBHaJVy-50" value="" style="edgeStyle=orthogonalEdgeStyle;curved=1;rounded=0;html=1;endArrow=none;endFill=0;jettySize=auto;orthogonalLoop=1;strokeWidth=4;fontSize=15;exitX=1;exitY=0.5;exitDx=0;exitDy=0;exitPerimeter=0;entryX=0;entryY=0.5;entryDx=0;entryDy=0;entryPerimeter=0;" edge="1" parent="1" source="Vz9PpJUxYuVP-sBHaJVy-30" target="Vz9PpJUxYuVP-sBHaJVy-47">
          <mxGeometry relative="1" as="geometry">
            <mxPoint x="640" y="280" as="sourcePoint" />
            <mxPoint x="760" y="280" as="targetPoint" />
            <Array as="points">
              <mxPoint x="782" y="296" />
            </Array>
          </mxGeometry>
        </mxCell>
        <mxCell id="Vz9PpJUxYuVP-sBHaJVy-56" value="" style="verticalLabelPosition=bottom;verticalAlign=top;html=1;strokeWidth=4;shape=mxgraph.flowchart.on-page_reference;plain-purple;gradientColor=none;strokeColor=#000000;fillColor=#D5E8D4;" vertex="1" parent="1">
          <mxGeometry x="910" y="281" width="30" height="30" as="geometry" />
        </mxCell>
        <mxCell id="Vz9PpJUxYuVP-sBHaJVy-57" value="" style="edgeStyle=orthogonalEdgeStyle;curved=1;rounded=0;html=1;endArrow=none;endFill=0;jettySize=auto;orthogonalLoop=1;strokeWidth=4;fontSize=15;exitX=1;exitY=0.5;exitDx=0;exitDy=0;exitPerimeter=0;startArrow=none;" edge="1" parent="1" source="Vz9PpJUxYuVP-sBHaJVy-30" target="Vz9PpJUxYuVP-sBHaJVy-56">
          <mxGeometry relative="1" as="geometry">
            <mxPoint x="740" y="296" as="sourcePoint" />
            <mxPoint x="970" y="296" as="targetPoint" />
          </mxGeometry>
        </mxCell>
        <mxCell id="Vz9PpJUxYuVP-sBHaJVy-63" value="" style="edgeStyle=orthogonalEdgeStyle;curved=1;rounded=0;html=1;endArrow=none;endFill=0;jettySize=auto;orthogonalLoop=1;strokeWidth=4;fontSize=15;startArrow=none;entryX=0;entryY=0.5;entryDx=0;entryDy=0;entryPerimeter=0;" edge="1" parent="1" source="Vz9PpJUxYuVP-sBHaJVy-30" target="Vz9PpJUxYuVP-sBHaJVy-33">
          <mxGeometry relative="1" as="geometry">
            <mxPoint x="750" y="306" as="sourcePoint" />
            <mxPoint x="860" y="306" as="targetPoint" />
            <Array as="points">
              <mxPoint x="780" y="296" />
              <mxPoint x="780" y="455" />
            </Array>
          </mxGeometry>
        </mxCell>
        <mxCell id="Vz9PpJUxYuVP-sBHaJVy-64" value="" style="endArrow=classic;html=1;strokeWidth=1;fontFamily=Courier New;fontColor=#009900;exitX=0.5;exitY=0;exitDx=0;exitDy=0;" edge="1" parent="1" source="Vz9PpJUxYuVP-sBHaJVy-65">
          <mxGeometry width="50" height="50" relative="1" as="geometry">
            <mxPoint x="954.875" y="551" as="sourcePoint" />
            <mxPoint x="784" y="440" as="targetPoint" />
          </mxGeometry>
        </mxCell>
        <mxCell id="Vz9PpJUxYuVP-sBHaJVy-65" value="&lt;span style=&quot;text-align: center&quot;&gt;在合并至Dev分支后，在下次开发前建议合并一次来自主干的修改&lt;br&gt;&lt;/span&gt;" style="text;html=1;strokeColor=none;fillColor=none;align=left;verticalAlign=middle;whiteSpace=wrap;overflow=hidden;fontSize=12;fontStyle=0;fontColor=#000000;" vertex="1" parent="1">
          <mxGeometry x="698.75" y="540" width="170" height="81" as="geometry" />
        </mxCell>
        <mxCell id="Vz9PpJUxYuVP-sBHaJVy-69" value="" style="verticalLabelPosition=bottom;verticalAlign=top;html=1;strokeWidth=4;shape=mxgraph.flowchart.on-page_reference;plain-purple;gradientColor=none;strokeColor=#000000;fillColor=#D5E8D4;" vertex="1" parent="1">
          <mxGeometry x="460" y="281" width="30" height="30" as="geometry" />
        </mxCell>
        <mxCell id="Vz9PpJUxYuVP-sBHaJVy-70" value="" style="edgeStyle=orthogonalEdgeStyle;curved=1;rounded=0;html=1;exitX=1;exitY=0.5;exitPerimeter=0;endArrow=none;endFill=0;jettySize=auto;orthogonalLoop=1;strokeWidth=4;fontSize=15;entryX=0;entryY=0.5;entryDx=0;entryDy=0;entryPerimeter=0;" edge="1" parent="1" source="uWUnNED6HEl2aK5fdaIb-15" target="Vz9PpJUxYuVP-sBHaJVy-69">
          <mxGeometry relative="1" as="geometry">
            <mxPoint x="369.75" y="296" as="sourcePoint" />
            <mxPoint x="600" y="296" as="targetPoint" />
          </mxGeometry>
        </mxCell>
        <mxCell id="Vz9PpJUxYuVP-sBHaJVy-71" value="" style="endArrow=classic;html=1;strokeWidth=1;fontFamily=Courier New;fontColor=#009900;exitX=0;exitY=0.75;exitDx=0;exitDy=0;" edge="1" parent="1" source="Vz9PpJUxYuVP-sBHaJVy-72">
          <mxGeometry width="50" height="50" relative="1" as="geometry">
            <mxPoint x="514.875" y="124" as="sourcePoint" />
            <mxPoint x="480" y="270" as="targetPoint" />
          </mxGeometry>
        </mxCell>
        <mxCell id="Vz9PpJUxYuVP-sBHaJVy-72" value="&lt;span style=&quot;text-align: center&quot;&gt;全局性质的修改&lt;br&gt;&lt;/span&gt;" style="text;html=1;strokeColor=none;fillColor=none;align=left;verticalAlign=middle;whiteSpace=wrap;overflow=hidden;fontSize=12;fontStyle=0;fontColor=#000000;" vertex="1" parent="1">
          <mxGeometry x="496" y="226" width="108.75" height="24" as="geometry" />
        </mxCell>
        <mxCell id="Vz9PpJUxYuVP-sBHaJVy-74" style="edgeStyle=orthogonalEdgeStyle;curved=1;rounded=0;orthogonalLoop=1;jettySize=auto;html=1;entryX=0.855;entryY=0.855;entryDx=0;entryDy=0;entryPerimeter=0;endArrow=none;endFill=0;strokeWidth=4;fontFamily=Courier New;fontColor=#009900;exitX=0;exitY=0.5;exitDx=0;exitDy=0;exitPerimeter=0;" edge="1" parent="1" source="uWUnNED6HEl2aK5fdaIb-95" target="Vz9PpJUxYuVP-sBHaJVy-56">
          <mxGeometry relative="1" as="geometry">
            <mxPoint x="980" y="370" as="sourcePoint" />
            <mxPoint x="1070" y="306" as="targetPoint" />
            <Array as="points">
              <mxPoint x="950" y="376" />
              <mxPoint x="950" y="307" />
            </Array>
          </mxGeometry>
        </mxCell>
        <mxCell id="Vz9PpJUxYuVP-sBHaJVy-75" value="" style="verticalLabelPosition=bottom;verticalAlign=top;html=1;strokeWidth=4;shape=mxgraph.flowchart.on-page_reference;plain-purple;gradientColor=none;strokeColor=#000000;fillColor=#FF66FF;" vertex="1" parent="1">
          <mxGeometry x="880" y="361" width="30" height="30" as="geometry" />
        </mxCell>
        <mxCell id="Vz9PpJUxYuVP-sBHaJVy-76" value="" style="edgeStyle=orthogonalEdgeStyle;curved=1;rounded=0;orthogonalLoop=1;jettySize=auto;html=1;endArrow=none;endFill=0;strokeWidth=4;fontFamily=Courier New;fontColor=#009900;" edge="1" parent="1" source="uWUnNED6HEl2aK5fdaIb-77" target="Vz9PpJUxYuVP-sBHaJVy-75">
          <mxGeometry relative="1" as="geometry">
            <mxPoint x="720" y="376" as="sourcePoint" />
            <mxPoint x="990" y="376" as="targetPoint" />
          </mxGeometry>
        </mxCell>
        <mxCell id="Vz9PpJUxYuVP-sBHaJVy-77" value="" style="endArrow=classic;html=1;strokeWidth=1;fontFamily=Courier New;fontColor=#009900;exitX=0.5;exitY=0;exitDx=0;exitDy=0;" edge="1" parent="1">
          <mxGeometry width="50" height="50" relative="1" as="geometry">
            <mxPoint x="940.375" y="505" as="sourcePoint" />
            <mxPoint x="940" y="345" as="targetPoint" />
          </mxGeometry>
        </mxCell>
        <mxCell id="Vz9PpJUxYuVP-sBHaJVy-78" value="&lt;span style=&quot;text-align: center&quot;&gt;开发中途接受来自Dev 主开发分支的修改，最好先本地提交一次&lt;br&gt;&lt;/span&gt;" style="text;html=1;strokeColor=none;fillColor=none;align=left;verticalAlign=middle;whiteSpace=wrap;overflow=hidden;fontSize=12;fontStyle=0;fontColor=#000000;" vertex="1" parent="1">
          <mxGeometry x="910" y="490" width="170" height="81" as="geometry" />
        </mxCell>
        <mxCell id="Vz9PpJUxYuVP-sBHaJVy-79" value="" style="edgeStyle=orthogonalEdgeStyle;rounded=0;orthogonalLoop=1;jettySize=auto;html=1;fontSize=15;endArrow=none;endFill=0;strokeWidth=4;exitX=1;exitY=0.5;exitDx=0;exitDy=0;exitPerimeter=0;" edge="1" parent="1" source="uWUnNED6HEl2aK5fdaIb-109">
          <mxGeometry relative="1" as="geometry">
            <mxPoint x="1210" y="211" as="targetPoint" />
            <mxPoint x="822.25" y="221" as="sourcePoint" />
          </mxGeometry>
        </mxCell>
      </root>
    </mxGraphModel>
  </diagram>
</mxfile>
